
<svg width="119" height="32" viewBox="0 0 119 32" fill="none" xmlns="http://www.w3.org/2000/svg">
<g clip-path="url(#clip0_2263_1772)">
<path d="M100.203 0.169258C97.3969 -0.58798 95.8246 1.41202 95.4905 2.23607C94.0785 4.63696 96.4838 9.93763 100.301 8.45434C104.105 6.96213 104.105 1.24276 100.203 0.169258ZM99.1475 5.95545C97.3034 6.6726 96.1319 4.1069 96.8134 2.94431C96.9827 2.53897 97.7444 1.58129 99.1074 1.93763C101.001 2.45879 101 5.22939 99.1475 5.95545Z" fill="#C4D600"/>
<path d="M99.1383 10.0579C96.6305 10.0579 96.0781 10.579 96.0781 12.9799V28.8686C96.0781 31.2784 96.626 31.7995 99.1383 31.7995C101.642 31.7995 102.189 31.2739 102.189 28.8686V12.9755C102.189 10.5746 101.646 10.0534 99.1383 10.0534" fill="white"/>
<path d="M90.3565 15.7951C92.5614 14.1915 92.9133 11.6347 92.9133 9.40312C92.9133 3.58574 89.8932 1.10468 82.8242 1.10468H73.5324C71.0068 1.10468 70.3164 1.46548 70.3164 4.03118V28.8686C70.3164 31.4298 71.0068 31.804 73.5324 31.804H83.6349C90.8019 31.804 93.724 29.2784 93.724 23.0869C93.724 20.1559 93.2518 17.314 90.3565 15.7951ZM76.7529 6.46325H82.499C85.9823 6.46325 86.3253 7.45657 86.3253 9.89309C86.3253 12.539 85.7953 13.3497 82.499 13.3497H76.7529V6.46325ZM83.3097 26.4232H76.7529V18.7216H83.3097C86.6638 18.7216 87.1449 19.5501 87.1449 22.5924C87.1449 25.6347 86.6371 26.4187 83.3097 26.4187" fill="white"/>
<path d="M20.0356 15.7951C22.2494 14.1915 22.5969 11.6347 22.5969 9.40312C22.5969 3.58574 19.5813 1.10468 12.4989 1.10468H3.21604C0.685969 1.10468 0 1.46548 0 4.02672V28.8641C0 31.4254 0.685969 31.7996 3.21604 31.7996H13.314C20.4811 31.7996 23.4031 29.2739 23.4031 23.0824C23.4031 20.1514 22.931 17.3096 20.0356 15.7906M6.43207 6.46325H12.1693C15.6615 6.46325 16.0134 7.45657 16.0134 9.89309C16.0134 12.539 15.4744 13.3497 12.1693 13.3497H6.43207V6.46325ZM12.9844 26.4232H6.43207V18.7216H12.9844C16.3385 18.7216 16.8196 19.5501 16.8196 22.5924C16.8196 25.6347 16.3163 26.4187 12.9844 26.4187" fill="white"/>
<path d="M42.1901 10.0579C40.2302 10.0579 39.4863 10.3919 39.2636 11.7104C36.5242 10.5523 34.2658 9.85742 32.012 9.85742C27.4373 9.85742 25.7402 12.8507 25.7402 20.9265C25.7402 29.0022 27.4373 32 32.012 32C34.3327 32 36.6445 31.2695 39.277 30.1202C39.5086 31.4164 40.2569 31.7416 42.2079 31.7416C44.7024 31.7416 45.2369 31.2294 45.2369 28.8196V12.9844C45.2369 10.5478 44.7291 10.0579 42.1857 10.0579M39.1879 25.0645C36.8271 26.089 34.9652 26.7572 33.6022 26.7572C32.6979 26.7572 31.8516 26.7572 31.8516 20.9265C31.8516 15.0957 32.738 15.0601 33.6022 15.0601C35.0008 15.0601 36.8583 15.7416 39.1879 16.7884V25.0601V25.0645Z" fill="white"/>
<path d="M61.3873 9.85748C59.1289 9.85748 56.8706 10.5479 54.1312 11.706C53.904 10.3875 53.169 10.0535 51.2047 10.0535C48.6612 10.0535 48.1445 10.5435 48.1445 12.98V28.8642C48.1445 31.2695 48.6835 31.7951 51.1779 31.7951C53.6724 31.7951 54.2069 31.2695 54.2069 28.8642V16.784C56.541 15.7328 58.3984 15.0557 59.7926 15.0557C60.247 15.0557 60.7058 15.0735 61.0443 15.9243C61.2759 16.7484 61.2448 17.9822 61.2448 17.9822V28.8553C61.2448 31.2651 61.7971 31.7907 64.345 31.7907C66.8929 31.7907 67.4363 31.2651 67.4363 28.8553V18.2227C67.4363 18.2227 67.4229 16.2406 67.2403 15.461C66.3895 11.4789 64.7147 9.85303 61.3784 9.85303" fill="white"/>
<path d="M114.976 6.54333C115.422 6.52106 118.851 6.83732 118.945 3.893C118.998 1.83955 117.809 1.15358 115.368 1.10012C114.09 1.06894 112.718 1.05113 111.484 1.30948C109.965 1.6391 108.673 2.27607 108.085 3.35848C107.609 4.22262 107.297 5.36293 107.096 6.88632C106.967 7.86627 106.892 8.84623 106.865 10.0712C104.802 10.0801 103.805 10.2627 103.805 12.5879C103.805 14.913 104.843 15.0645 106.843 15.0689V28.8774C106.843 31.2872 107.377 31.8039 109.889 31.8039C112.402 31.8039 112.941 31.2872 112.941 28.8774V15.0734H114.544C116.718 15.0734 117.849 14.9531 117.849 12.5834C117.849 10.2137 116.785 10.0667 114.544 10.0667H112.954C112.954 7.70146 112.664 6.53442 114.972 6.53442" fill="white"/>
</g>
<defs>
<clipPath id="clip0_2263_1772">
<rect width="118.944" height="32" fill="white"/>
</clipPath>
</defs>
</svg>
